<svg id="Group_14" data-name="Group 14" xmlns="http://www.w3.org/2000/svg" width="155.078" height="45.645" viewBox="0 0 155.078 45.645">
  <g id="Group_2" data-name="Group 2" transform="translate(0 0)">
    <rect id="Rectangle_11" data-name="Rectangle 11" width="153.927" height="44.495" rx="7.382" transform="translate(0.576 0.575)" fill="#0b1c28"/>
    <path id="Path_1085" data-name="Path 1085" d="M45.53,52.786H-97.876a5.843,5.843,0,0,1-5.836-5.836V12.977a5.843,5.843,0,0,1,5.836-5.836H45.53a5.843,5.843,0,0,1,5.836,5.836V46.951A5.843,5.843,0,0,1,45.53,52.786ZM-97.876,8.292a4.691,4.691,0,0,0-4.686,4.685V46.951a4.691,4.691,0,0,0,4.686,4.685H45.53a4.691,4.691,0,0,0,4.686-4.685V12.977A4.691,4.691,0,0,0,45.53,8.292Z" transform="translate(103.712 -7.141)" fill="#96999c"/>
  </g>
  <g id="Group_3" data-name="Group 3" transform="translate(49.571 7.195)">
    <path id="Path_1086" data-name="Path 1086" d="M-32.093,23.189l-.646,2.125h-1.412l2.4-7.5H-30l2.436,7.5h-1.469l-.678-2.125Zm2.147-1.034-.59-1.847c-.145-.456-.267-.968-.378-1.4h-.022c-.111.433-.222.956-.356,1.4l-.578,1.847Z" transform="translate(34.151 -17.404)" fill="#fff"/>
    <path id="Path_1087" data-name="Path 1087" d="M-22.637,20.735l.878,2.748c.156.478.267.912.368,1.357h.033c.1-.445.222-.868.367-1.357l.867-2.748h1.435l-2.069,5.417H-22.1l-2.014-5.417Z" transform="translate(31.267 -18.243)" fill="#fff"/>
    <path id="Path_1088" data-name="Path 1088" d="M-10.685,24.8a7.283,7.283,0,0,0,.089,1.3h-1.235l-.1-.6h-.033a1.98,1.98,0,0,1-1.6.723,1.608,1.608,0,0,1-1.7-1.613c0-1.357,1.213-2.058,3.215-2.047v-.089c0-.356-.145-.946-1.1-.946a2.868,2.868,0,0,0-1.457.4l-.267-.89a3.906,3.906,0,0,1,1.958-.478,2.029,2.029,0,0,1,2.236,2.292Zm-1.335-1.347c-.968-.011-1.891.19-1.891,1.013a.718.718,0,0,0,.779.779,1.124,1.124,0,0,0,1.079-.745.921.921,0,0,0,.033-.3Z" transform="translate(28.725 -18.194)" fill="#fff"/>
    <path id="Path_1089" data-name="Path 1089" d="M-5.476,19.045a.725.725,0,0,1-.756-.734.731.731,0,0,1,.767-.745.731.731,0,0,1,.767.745.728.728,0,0,1-.767.734Zm-.678,6.2V19.824h1.368v5.417Z" transform="translate(26.128 -17.332)" fill="#fff"/>
    <path id="Path_1090" data-name="Path 1090" d="M-1.441,17.238H-.073v7.909H-1.441Z" transform="translate(24.751 -17.238)" fill="#fff"/>
    <path id="Path_1091" data-name="Path 1091" d="M7.309,24.8A7.357,7.357,0,0,0,7.4,26.1H6.162l-.1-.6H6.029a1.979,1.979,0,0,1-1.6.723,1.609,1.609,0,0,1-1.7-1.613c0-1.357,1.213-2.058,3.215-2.047v-.089c0-.356-.144-.946-1.1-.946a2.868,2.868,0,0,0-1.457.4l-.267-.89a3.9,3.9,0,0,1,1.958-.478,2.03,2.03,0,0,1,2.236,2.292ZM5.973,23.455c-.968-.011-1.891.19-1.891,1.013a.718.718,0,0,0,.778.779A1.123,1.123,0,0,0,5.94,24.5a.921.921,0,0,0,.033-.3Z" transform="translate(23.554 -18.194)" fill="#fff"/>
    <path id="Path_1092" data-name="Path 1092" d="M11.853,17.238h1.368v3.237h.022a1.96,1.96,0,0,1,1.735-.868c1.324,0,2.269,1.1,2.258,2.748,0,1.946-1.234,2.915-2.458,2.915a1.865,1.865,0,0,1-1.713-.935h-.022l-.067.812H11.808c.022-.367.045-.968.045-1.513Zm1.368,5.673a1.475,1.475,0,0,0,.033.323,1.25,1.25,0,0,0,1.212.957c.857,0,1.379-.679,1.379-1.78,0-.957-.455-1.735-1.368-1.735a1.271,1.271,0,0,0-1.212,1,1.641,1.641,0,0,0-.044.356Z" transform="translate(20.944 -17.238)" fill="#fff"/>
    <path id="Path_1093" data-name="Path 1093" d="M21.686,17.238h1.368v7.909H21.686Z" transform="translate(18.105 -17.238)" fill="#fff"/>
    <path id="Path_1094" data-name="Path 1094" d="M27.212,23.778a1.471,1.471,0,0,0,1.668,1.4,4.364,4.364,0,0,0,1.5-.244l.2.934a4.863,4.863,0,0,1-1.891.345A2.563,2.563,0,0,1,25.9,23.478a2.683,2.683,0,0,1,2.648-2.915A2.355,2.355,0,0,1,30.882,23.2a3.5,3.5,0,0,1-.043.579Zm2.38-.957A1.165,1.165,0,0,0,28.469,21.5a1.339,1.339,0,0,0-1.256,1.324Z" transform="translate(16.894 -18.194)" fill="#fff"/>
    <path id="Path_1095" data-name="Path 1095" d="M41.27,26.226a2.62,2.62,0,0,1-2.715-2.792,2.675,2.675,0,0,1,2.8-2.87,2.6,2.6,0,0,1,2.692,2.781,2.681,2.681,0,0,1-2.77,2.881Zm.044-.991c.778,0,1.324-.756,1.324-1.857,0-.846-.378-1.824-1.313-1.824-.968,0-1.358.945-1.358,1.846,0,1.045.523,1.835,1.335,1.835Z" transform="translate(13.257 -18.194)" fill="#fff"/>
    <path id="Path_1096" data-name="Path 1096" d="M48.51,22.3c0-.623-.022-1.145-.045-1.613h1.19l.067.812h.033a1.99,1.99,0,0,1,1.736-.934c.945,0,1.924.612,1.924,2.325V26.1H52.047V23.044c0-.778-.289-1.368-1.035-1.368a1.147,1.147,0,0,0-1.068.8,1.26,1.26,0,0,0-.067.434V26.1H48.51Z" transform="translate(10.409 -18.194)" fill="#fff"/>
    <path id="Path_1097" data-name="Path 1097" d="M63.406,18.784v1.39h1.3V21.2h-1.3v2.381c0,.667.178,1,.7,1a1.77,1.77,0,0,0,.534-.056l.022,1.035a3.008,3.008,0,0,1-.991.145,1.568,1.568,0,0,1-1.179-.445,2.134,2.134,0,0,1-.433-1.524V21.2h-.768V20.174h.768V19.162Z" transform="translate(6.723 -17.682)" fill="#fff"/>
    <path id="Path_1098" data-name="Path 1098" d="M68.222,17.238H69.59v3.226h.022a1.8,1.8,0,0,1,.679-.611,1.924,1.924,0,0,1,.946-.245c.923,0,1.891.612,1.891,2.347v3.193H71.759V22.1c0-.779-.289-1.38-1.046-1.38a1.141,1.141,0,0,0-1.068.767,1.24,1.24,0,0,0-.056.412v3.248H68.222Z" transform="translate(4.732 -17.238)" fill="#fff"/>
    <path id="Path_1099" data-name="Path 1099" d="M78.663,23.778a1.471,1.471,0,0,0,1.668,1.4,4.364,4.364,0,0,0,1.5-.244l.2.934a4.863,4.863,0,0,1-1.891.345,2.563,2.563,0,0,1-2.793-2.736A2.683,2.683,0,0,1,80,20.563,2.355,2.355,0,0,1,82.333,23.2a3.5,3.5,0,0,1-.043.579Zm2.38-.957A1.165,1.165,0,0,0,79.92,21.5a1.339,1.339,0,0,0-1.257,1.324Z" transform="translate(2.109 -18.194)" fill="#fff"/>
  </g>
  <g id="Group_6" data-name="Group 6" transform="translate(14.649 6.756)">
    <g id="Group_4" data-name="Group 4">
      <path id="Path_1100" data-name="Path 1100" d="M-63.2,35.1a6.672,6.672,0,0,1,3.178-5.6A6.83,6.83,0,0,0-65.4,26.588c-2.265-.237-4.462,1.357-5.613,1.357-1.177,0-2.957-1.333-4.869-1.294a7.172,7.172,0,0,0-6.033,3.68c-2.608,4.517-.663,11.154,1.836,14.807,1.251,1.787,2.712,3.785,4.624,3.714,1.871-.078,2.568-1.192,4.827-1.192,2.238,0,2.895,1.192,4.845,1.147,2.007-.033,3.271-1.8,4.477-3.6a14.7,14.7,0,0,0,2.05-4.172A6.449,6.449,0,0,1-63.2,35.1" transform="translate(83.155 -19.479)" fill="#fff"/>
      <path id="Path_1101" data-name="Path 1101" d="M-62.092,21.33a6.556,6.556,0,0,0,1.5-4.708,6.678,6.678,0,0,0-4.324,2.238,6.248,6.248,0,0,0-1.544,4.534,5.528,5.528,0,0,0,4.366-2.065" transform="translate(78.367 -16.622)" fill="#fff"/>
    </g>
    <g id="Group_5" data-name="Group 5" transform="translate(34.104 13.572)">
      <path id="Path_1102" data-name="Path 1102" d="M-22.4,51.264h-2.605l-1.429-4.489H-31.4l-1.361,4.489H-35.3l4.921-15.277h3.034Zm-4.463-6.372L-28.156,40.9q-.207-.609-.772-2.877h-.045Q-29.2,39-29.7,40.9l-1.269,3.989Z" transform="translate(35.298 -35.759)" fill="#fff"/>
      <path id="Path_1103" data-name="Path 1103" d="M-3.73,47.246a6.26,6.26,0,0,1-1.519,4.443,4.44,4.44,0,0,1-3.376,1.449,3.382,3.382,0,0,1-3.13-1.564H-11.8v5.8h-2.45V45.5q0-1.767-.09-3.626h2.152l.137,1.746H-12a4.077,4.077,0,0,1,3.716-1.973,4.09,4.09,0,0,1,3.252,1.541,6.077,6.077,0,0,1,1.3,4.057m-2.493.09a4.547,4.547,0,0,0-.725-2.652A2.507,2.507,0,0,0-9.078,43.6a2.538,2.538,0,0,0-1.643.6,2.794,2.794,0,0,0-.964,1.578,3.192,3.192,0,0,0-.112.745v1.837a2.939,2.939,0,0,0,.733,2.027,2.442,2.442,0,0,0,1.917.827,2.5,2.5,0,0,0,2.152-1.064,4.678,4.678,0,0,0,.772-2.811" transform="translate(29.274 -37.386)" fill="#fff"/>
      <path id="Path_1104" data-name="Path 1104" d="M14.048,47.246a6.258,6.258,0,0,1-1.519,4.443,4.438,4.438,0,0,1-3.376,1.449,3.377,3.377,0,0,1-3.126-1.564H5.981v5.8H3.534V45.5q0-1.767-.091-3.626H5.6l.137,1.746h.047a4.068,4.068,0,0,1,3.716-1.973,4.092,4.092,0,0,1,3.252,1.541,6.077,6.077,0,0,1,1.3,4.057m-2.491.09a4.537,4.537,0,0,0-.727-2.652A2.506,2.506,0,0,0,8.7,43.6a2.544,2.544,0,0,0-1.644.6A2.79,2.79,0,0,0,6.1,45.774a3.072,3.072,0,0,0-.115.745v1.837a2.93,2.93,0,0,0,.735,2.027,2.436,2.436,0,0,0,1.917.827,2.5,2.5,0,0,0,2.152-1.064,4.7,4.7,0,0,0,.772-2.811" transform="translate(24.165 -37.386)" fill="#fff"/>
      <path id="Path_1105" data-name="Path 1105" d="M34.383,46.887a4.069,4.069,0,0,1-1.358,3.173,6.01,6.01,0,0,1-4.16,1.337,7.3,7.3,0,0,1-3.961-.951l.567-2.04a6.712,6.712,0,0,0,3.54.973,3.345,3.345,0,0,0,2.155-.623,2.043,2.043,0,0,0,.769-1.669,2.134,2.134,0,0,0-.634-1.566A5.918,5.918,0,0,0,29.19,44.34q-4.012-1.5-4.01-4.381a3.875,3.875,0,0,1,1.405-3.087,5.55,5.55,0,0,1,3.74-1.205,7.418,7.418,0,0,1,3.467.726l-.611,1.995a6.032,6.032,0,0,0-2.925-.7,2.953,2.953,0,0,0-2.016.635A1.82,1.82,0,0,0,27.63,39.7a1.863,1.863,0,0,0,.7,1.5,7.931,7.931,0,0,0,2.221,1.18,7.54,7.54,0,0,1,2.9,1.857,3.9,3.9,0,0,1,.929,2.652" transform="translate(17.998 -35.667)" fill="#fff"/>
      <path id="Path_1106" data-name="Path 1106" d="M46.853,42.7h-2.7v5.349q0,2.04,1.43,2.04a4.406,4.406,0,0,0,1.086-.113l.067,1.859a5.513,5.513,0,0,1-1.9.272,2.934,2.934,0,0,1-2.267-.882,4.346,4.346,0,0,1-.816-2.97V42.7h-1.61V40.858h1.61V38.842l2.4-.726v2.742h2.7Z" transform="translate(13.618 -36.371)" fill="#fff"/>
      <path id="Path_1107" data-name="Path 1107" d="M62.289,47.291a6.043,6.043,0,0,1-1.449,4.171,5.18,5.18,0,0,1-4.035,1.676,4.924,4.924,0,0,1-3.865-1.609,5.854,5.854,0,0,1-1.44-4.055,5.977,5.977,0,0,1,1.484-4.193,5.129,5.129,0,0,1,4-1.633,5.036,5.036,0,0,1,3.9,1.609,5.8,5.8,0,0,1,1.405,4.034m-2.54.079a4.958,4.958,0,0,0-.658-2.613,2.415,2.415,0,0,0-2.2-1.319,2.452,2.452,0,0,0-2.245,1.319A5.058,5.058,0,0,0,54,47.418a4.956,4.956,0,0,0,.655,2.612,2.469,2.469,0,0,0,2.223,1.318,2.442,2.442,0,0,0,2.2-1.34,4.962,4.962,0,0,0,.68-2.637" transform="translate(10.354 -37.386)" fill="#fff"/>
      <path id="Path_1108" data-name="Path 1108" d="M75.426,44.027a4.339,4.339,0,0,0-.77-.068,2.32,2.32,0,0,0-2,.976,3.67,3.67,0,0,0-.611,2.174v5.78H69.6l.021-7.546q0-1.9-.09-3.469h2.131l.09,2.109h.066a3.771,3.771,0,0,1,1.225-1.745,2.965,2.965,0,0,1,1.77-.59,3.937,3.937,0,0,1,.61.043Z" transform="translate(5.172 -37.386)" fill="#fff"/>
      <path id="Path_1109" data-name="Path 1109" d="M89.214,46.851a5.9,5.9,0,0,1-.088,1.111H81.784a3.2,3.2,0,0,0,1.064,2.495,3.635,3.635,0,0,0,2.4.768,8.12,8.12,0,0,0,2.968-.521l.384,1.7a9.206,9.206,0,0,1-3.695.681,5.343,5.343,0,0,1-4.023-1.509,5.572,5.572,0,0,1-1.462-4.046,6.313,6.313,0,0,1,1.362-4.149,4.685,4.685,0,0,1,3.85-1.767,4.109,4.109,0,0,1,3.608,1.767,5.964,5.964,0,0,1,.97,3.468m-2.334-.635a3.31,3.31,0,0,0-.474-1.881,2.143,2.143,0,0,0-1.952-1.02,2.329,2.329,0,0,0-1.948,1,3.623,3.623,0,0,0-.723,1.9Z" transform="translate(2.33 -37.377)" fill="#fff"/>
    </g>
  </g>
</svg>
