<svg xmlns="http://www.w3.org/2000/svg" width="201.51" height="41.73" viewBox="0 0 201.51 41.73">
  <g id="Group_28670" data-name="Group 28670" transform="translate(0)">
    <path id="Path_1462" data-name="Path 1462" d="M-60.362,1794.015v-.115a9.216,9.216,0,0,0,5.8-8.724,8.958,8.958,0,0,0-5.051-8.322c-2.642-1.377-6.141-1.664-9.757-1.664H-82.859v39.6h16.185c4.074,0,7.632-.746,10.157-2.583a10.037,10.037,0,0,0,4.362-8.781C-52.155,1798.549-55.426,1795.22-60.362,1794.015Zm-13.257-11.938h3.845c2,0,3.042.115,4.132.8a3.916,3.916,0,0,1,1.951,3.67,4.179,4.179,0,0,1-1.951,3.788c-1.093.746-2.3.861-4.362.861h-3.616Zm12.052,20.6v0a4.424,4.424,0,0,1-2,3.956c-1.377.976-2.927,1.093-4.936,1.093h-5.112v-10.1h5.108c2,0,3.558.115,4.936,1.093a4.427,4.427,0,0,1,2.009,3.955v0Z" transform="translate(98.535 -1773.692)" fill="#fff"/>
    <path id="Path_1463" data-name="Path 1463" d="M-35.937,1778.309c0-2.812-2.123-4.763-5.223-4.763s-5.223,1.951-5.223,4.763c0,2.87,2.123,4.764,5.223,4.764s5.223-1.888,5.223-4.757Z" transform="translate(95.288 -1773.545)" fill="#fff"/>
    <rect id="Rectangle_21" data-name="Rectangle 21" width="9.183" height="28.3" transform="translate(49.537 12.798)" fill="#fff"/>
    <path id="Path_1464" data-name="Path 1464" d="M-16.483,1787.034c-8.954,0-15.724,5.624-15.724,14.75s6.772,14.692,15.725,14.692,15.668-5.567,15.668-14.692S-7.529,1787.034-16.483,1787.034Zm0,21.924c-4.075,0-6.428-3.156-6.428-7.346s2.353-7.346,6.428-7.346c4.017,0,6.428,3.156,6.428,7.346S-12.464,1808.958-16.482,1808.958Z" transform="translate(94.026 -1774.746)" fill="#7ac231"/>
    <path id="Path_1465" data-name="Path 1465" d="M30.729,1778.168c-2.64-2.186-6.256-2.984-10.33-2.984H6.223v39.605h9.3v-14.635H20.4c4.075,0,7.69-.8,10.33-2.984a11.734,11.734,0,0,0,4.132-9.528C34.861,1783.4,33.369,1780.355,30.729,1778.168Zm-7.174,13.721a7.3,7.3,0,0,1-4.477,1.093H15.464v-10.624h3.615a7.3,7.3,0,0,1,4.477,1.094,4.96,4.96,0,0,1,1.894,4.19A5.078,5.078,0,0,1,23.555,1791.89Z" transform="translate(90.604 -1773.691)" fill="#fff"/>
    <path id="Path_1466" data-name="Path 1466" d="M52.754,1787.033c-8.954,0-15.725,5.624-15.725,14.749s6.773,14.693,15.726,14.693,15.669-5.567,15.669-14.692h0C68.424,1792.657,61.708,1787.033,52.754,1787.033Zm6.429,14.578h0c0,4.191-2.41,7.346-6.428,7.346-4.075,0-6.428-3.156-6.428-7.346s2.353-7.346,6.428-7.346c4.017,0,6.428,3.157,6.428,7.346h0Z" transform="translate(87.862 -1774.746)" fill="#fff"/>
    <path id="Path_1467" data-name="Path 1467" d="M88.727,1787.033c-8.954,0-15.725,5.624-15.725,14.749s6.773,14.693,15.726,14.693,15.668-5.567,15.668-14.692h0C104.4,1792.657,97.681,1787.033,88.727,1787.033Zm6.429,14.578h0c0,4.191-2.41,7.346-6.428,7.346-4.075,0-6.428-3.156-6.428-7.346s2.353-7.346,6.428-7.346c4.015,0,6.428,3.157,6.428,7.346h0Z" transform="translate(84.659 -1774.746)" fill="#fff"/>
    <rect id="Rectangle_22" data-name="Rectangle 22" width="9.183" height="39.6" transform="translate(192.327 1.498)" fill="#fff"/>
    <path id="Path_24" data-name="Path 24" d="M-82.855,1785.21c-6.462-4.257-17.212-.184-17.212-.184a35.623,35.623,0,0,1,9.171,1.368h0c8.335,2.557,9.512,7.963,16.2,10.843,8.239,3.546,14.505-3.471,14.505-3.471C-71.222,1799.1-75.432,1790.1-82.855,1785.21Z" transform="translate(100.067 -1774.411)" fill="#7ac231"/>
  </g>
</svg>
