<svg xmlns="http://www.w3.org/2000/svg" width="88.632" height="33.933" viewBox="0 0 88.632 33.933">
  <g id="Community" transform="translate(-0.124 -0.385)">
    <g id="footer" transform="translate(0.124 0.385)">
      <g id="Group_28671" data-name="Group 28671" transform="translate(0 0)">
        <g id="Group-14" transform="translate(0 0)">
          <g id="chia-logo-_1_" data-name="chia-logo-(1)" transform="translate(0 0)">
            <path id="Rectangle-path" d="M90,19h7.7V41.521H90Z" transform="translate(-36.735 -7.968)" fill="#4c8420"/>
            <g id="Group">
              <path id="Shape" d="M42.811,11.075c-2.962,0-5.991.709-6.745,2.029-.01.017-.02.032-.03.049V3.7H28.125V18.72c.787.36,1.594.772,2.41,1.238.276.158.51.3.682.4.108.065.216.13.324.2.011.007-4.522,7.065-10.695,8.547-3.647.876-7.955-.185-8.828-3.843-.037-.152-.057-.3-.08-.456.582-.346,1.176-.664,1.774-.959,1.511-.658,2.664-1.152,3.1-1.319l.115-.043h0a38.2,38.2,0,0,1,6.625-1.757,25.127,25.127,0,0,0-7.076.345h0l-.041.01a20.209,20.209,0,0,0-4.4,1.4,7.849,7.849,0,0,1,5.645-5.58c.239-.057.48-.1.723-.139l.209-.029c.188-.026.378-.046.569-.061.061,0,.122-.011.183-.014q.366-.023.734-.022l.145,0q.305,0,.611.024l.215.015.214.019a19.652,19.652,0,0,1,4.2.976V12.484c-.768-.238-1.584-.468-2.43-.676A21.09,21.09,0,0,0,12.806,11.6c-6.739,1.642-8.65,6.628-8.65,12.72a13.421,13.421,0,0,0,.174,2.186A29,29,0,0,0,.124,29.858s1.944-.867,4.511-2.007C6.349,33.7,12.326,35.67,16.828,35.67c4.694,0,7.708-1.34,11.3-3.58v2.837h7.911V20.853l.03-.056v-.239a3.377,3.377,0,0,1,3.455-2.531c1.88,0,3.055,1.335,3.055,3.457V34.928h7.911V19.207c0-4.95-3.094-8.132-7.676-8.132" transform="translate(-0.124 -1.737)" fill="#4c8420"/>
              <path id="Shape-2" data-name="Shape" d="M93.488.385a3.913,3.913,0,0,0-4.073,4.085,4.073,4.073,0,1,0,8.146,0A3.913,3.913,0,0,0,93.488.385" transform="translate(-36.497 -0.385)" fill="#4c8420"/>
              <path id="Shape-3" data-name="Shape" d="M130.781,27.473h.01l-.008-10.032h-7.92l-.043,1.426c-7.639-4.922-12.516.14-12.516.14-2.332,2.136-3.686,5.509-3.686,9.743,0,7.508,4.5,11.974,10.348,11.974a6.6,6.6,0,0,0,5.956-2.915,15.646,15.646,0,0,0,.974,2.418h8.242c-1.413-2.326-1.4-10.392-1.355-12.754m-11.97,6.747c-2.565,0-4.374-2.233-4.374-5.4s1.809-5.4,4.374-5.4a4.17,4.17,0,0,1,3.916,2.848v5.106a4.17,4.17,0,0,1-3.916,2.848" transform="translate(-43.504 -7.037)" fill="#4c8420"/>
            </g>
          </g>
        </g>
      </g>
    </g>
  </g>
</svg>
