<svg xmlns="http://www.w3.org/2000/svg" width="190.188" height="49.141" viewBox="0 0 190.188 49.141">
  <g id="Group_32722" data-name="Group 32722" transform="translate(-1485.813 -4055.996)">
    <g id="Group_8" data-name="Group 8" transform="translate(1485.813 4055.996)">
      <path id="Path_21" data-name="Path 21" d="M1008.918,908.248c5.979,1.019,10.357,1.1,13.767.514l8.69-11.994a29.762,29.762,0,0,0-8.877-3.666,41.642,41.642,0,0,0-10.311-1.357q-11.544,0-19.032,7.035a22.955,22.955,0,0,0-7.26,14.235A31.548,31.548,0,0,1,1008.918,908.248Z" transform="translate(-976.253 -891.745)" fill="#7ac231"/>
      <path id="Path_22" data-name="Path 22" d="M1006.072,922.13c-7.616.043-10.774-2.873-19.8-2.254a22.89,22.89,0,0,0,6.549,11.452q7.192,7.006,19.328,7.005a41.4,41.4,0,0,0,10.14-1.341,33.522,33.522,0,0,0,9.048-3.588l-11.67-17.324S1015.534,922.076,1006.072,922.13Z" transform="translate(-976.214 -889.192)" fill="#7ac231"/>
      <path id="Path_23" data-name="Path 23" d="M985.9,911.4h0c14.935-2.984,17.789.822,27.937,2.21,10.924,1.49,17.772-6.438,17.772-6.438a17.175,17.175,0,0,1-11.312,3.281h-.041a48.838,48.838,0,0,1-11.008-1.788A31.544,31.544,0,0,0,985.9,911.4h0Z" transform="translate(-976.253 -890.127)" fill="#7ac231"/>
      <path id="Path_24" data-name="Path 24" d="M994.541,915.455c-7.89-1.356-17.372,3.4-17.372,3.4a58.735,58.735,0,0,1,9.672-1.012h0c9.218-.095,12.169,3.061,19.832,3.505,9.446.546,13.951-5.177,13.951-5.177C1011.273,921.771,1003.6,917.01,994.541,915.455Z" transform="translate(-977.169 -889.283)" fill="#7ac231"/>
    </g>
    <g id="Group_269" data-name="Group 269" transform="translate(1552.102 4062.654)">
      <path id="Path_26" data-name="Path 26" d="M1049.669,913.506c0,6.048,4.387,11.5,12.224,11.5a13.2,13.2,0,0,0,9.413-3.621l-2.683-5.154s-2.939,2.641-6.006,2.641a5.3,5.3,0,0,1-5.493-5.1c-.005-.118-.005-.234,0-.351a5.044,5.044,0,0,1,4.841-5.239q.2-.008.4,0a8,8,0,0,1,5.154,2.13l3.11-4.941s-2.769-3.322-8.732-3.322C1054.013,902.049,1049.669,907.628,1049.669,913.506Z" transform="translate(-1049.669 -894.041)" fill="#fff"/>
      <path id="Path_27" data-name="Path 27" d="M1085.2,920.658h7.369v-9.711a8.475,8.475,0,0,1,.383-2.811,4.425,4.425,0,0,1,4.387-3.237c1.619,0,2.428.852,2.428,2.9v12.864h7.369V906.432c0-6.176-3.448-8.22-7.88-8.22a7.533,7.533,0,0,0-6.687,3.492h-.085s.085-.767.085-1.874V890.2h-7.37Z" transform="translate(-1061.178 -890.204)" fill="#fff"/>
      <rect id="Rectangle_5" data-name="Rectangle 5" width="7.198" height="5.75" transform="translate(50.132)" fill="#7ac231"/>
      <rect id="Rectangle_6" data-name="Rectangle 6" width="7.369" height="21.935" transform="translate(50.046 8.519)" fill="#fff"/>
      <path id="Path_28" data-name="Path 28" d="M1149.147,902.048a16.591,16.591,0,0,0-9.2,2.854l2.555,5.2s3.152-2.087,5.92-2.087c1.832,0,3.237.6,3.237,2.428v.383h-.3c-3.408,0-12.735.724-12.735,7.114,0,4.344,3.365,7.07,7.454,7.07a6.834,6.834,0,0,0,6.22-3.195h.085a11.62,11.62,0,0,0-.085,1.363v1.319h6.73v-13.5C1159.028,905.413,1155.323,902.048,1149.147,902.048Zm2.6,13.461a4.068,4.068,0,0,1-3.62,3.876c-1.45,0-2.088-.811-2.089-1.832h0c0-1.831,2.683-2.512,5.026-2.512h.683Z" transform="translate(-1078.484 -894.04)" fill="#fff"/>
      <path id="Path_29" data-name="Path 29" d="M1175.078,913.813c0,7.369,6.772,8.305,10.265,8.305a14.157,14.157,0,0,0,2-.128V915.6a9.8,9.8,0,0,1-.98.043c-1.406,0-3.921-.338-3.921-2.811V906.1h4.6v-5.747h-4.6v-6.308h-7.153v6.3h-3.024V906.1h2.811Z" transform="translate(-1089.381 -891.449)" fill="#7ac231"/>
      <path id="Path_30" data-name="Path 30" d="M1199.356,920.659h7.369V912.14h2.3l4.644,8.519h8.387l-7.322-11.883v-.083l6.431-9.967h-8.007l-4.344,7.241h-2.087V890.207h-7.369Z" transform="translate(-1098.156 -890.205)" fill="#7ac231"/>
    </g>
  </g>
</svg>
