<svg id="Group_15" data-name="Group 15" xmlns="http://www.w3.org/2000/svg" xmlns:xlink="http://www.w3.org/1999/xlink" width="155.078" height="45.646" viewBox="0 0 155.078 45.646">
  <defs>
    <linearGradient id="linear-gradient" x1="0.807" y1="0.5" x2="-1.573" y2="0.5" gradientUnits="objectBoundingBox">
      <stop offset="0" stop-color="gold"/>
      <stop offset="0.075" stop-color="#fece00"/>
      <stop offset="0.48" stop-color="#fca704"/>
      <stop offset="0.803" stop-color="#fa8e07"/>
      <stop offset="1" stop-color="#fa8608"/>
    </linearGradient>
    <linearGradient id="linear-gradient-2" x1="0.862" y1="0.178" x2="-0.501" y2="1.948" gradientUnits="objectBoundingBox">
      <stop offset="0" stop-color="#e82b36"/>
      <stop offset="1" stop-color="#b4005a"/>
    </linearGradient>
    <linearGradient id="linear-gradient-3" x1="-0.508" y1="-0.956" x2="0.606" y2="0.489" gradientUnits="objectBoundingBox">
      <stop offset="0" stop-color="#2f8e5b"/>
      <stop offset="0.39" stop-color="#4ea157"/>
      <stop offset="0.768" stop-color="#67b054"/>
      <stop offset="1" stop-color="#70b653"/>
    </linearGradient>
  </defs>
  <g id="Group_8" data-name="Group 8" transform="translate(0 0)">
    <path id="Path_1127" data-name="Path 1127" d="M7.434,0h139.06a7.434,7.434,0,0,1,7.434,7.434V37.061a7.434,7.434,0,0,1-7.434,7.434H7.434A7.434,7.434,0,0,1,0,37.061V7.434A7.434,7.434,0,0,1,7.434,0Z" transform="translate(0.576 0.576)" fill="#0b1c28"/>
    <path id="Path_1110" data-name="Path 1110" d="M146.633,140.421H3.226a5.843,5.843,0,0,1-5.836-5.836V100.611a5.843,5.843,0,0,1,5.836-5.836H146.633a5.843,5.843,0,0,1,5.836,5.836v33.973A5.843,5.843,0,0,1,146.633,140.421ZM3.226,95.926a4.69,4.69,0,0,0-4.685,4.686v33.973a4.69,4.69,0,0,0,4.685,4.685H146.633a4.69,4.69,0,0,0,4.685-4.685V100.611a4.69,4.69,0,0,0-4.685-4.686Z" transform="translate(2.61 -94.775)" fill="#96999c"/>
  </g>
  <g id="Group_10" data-name="Group 10" transform="translate(11.565 8.227)">
    <path id="Path_1111" data-name="Path 1111" d="M94.643,127.63a4.875,4.875,0,1,0,4.894,4.875A4.8,4.8,0,0,0,94.643,127.63Zm0,7.83a2.962,2.962,0,1,1,2.751-2.955A2.82,2.82,0,0,1,94.643,135.459Zm-10.674-7.83a4.875,4.875,0,1,0,4.893,4.875A4.805,4.805,0,0,0,83.969,127.63Zm0,7.83A2.962,2.962,0,1,1,86.72,132.5,2.82,2.82,0,0,1,83.969,135.459Zm-12.7-6.334v2.068H76.22a4.319,4.319,0,0,1-1.127,2.6,5.068,5.068,0,0,1-3.823,1.514,5.5,5.5,0,0,1,0-11.005A5.273,5.273,0,0,1,75,125.783l1.459-1.459a7.215,7.215,0,0,0-5.189-2.087,7.572,7.572,0,1,0,0,15.142,6.924,6.924,0,0,0,5.281-2.124,6.835,6.835,0,0,0,1.791-4.838,6.727,6.727,0,0,0-.11-1.293Zm51.931,1.606a4.531,4.531,0,0,0-4.173-3.1,4.633,4.633,0,0,0-4.6,4.875,4.771,4.771,0,0,0,4.838,4.875,4.849,4.849,0,0,0,4.062-2.161l-1.662-1.108a2.783,2.783,0,0,1-2.4,1.348,2.48,2.48,0,0,1-2.364-1.477l6.518-2.7Zm-6.647,1.626a2.674,2.674,0,0,1,2.548-2.844,1.888,1.888,0,0,1,1.81,1.034Zm-5.3,4.727H113.4V122.755h-2.142Zm-3.508-8.365h-.074a3.379,3.379,0,0,0-2.567-1.09,4.88,4.88,0,0,0,0,9.75,3.324,3.324,0,0,0,2.567-1.108h.074v.7c0,1.865-1,2.862-2.6,2.862a2.7,2.7,0,0,1-2.456-1.736l-1.865.776a4.646,4.646,0,0,0,4.321,2.88c2.511,0,4.635-1.477,4.635-5.078v-8.752h-2.031Zm-2.456,6.74a2.965,2.965,0,0,1,0-5.909,2.978,2.978,0,0,1,0,5.909Zm27.945-12.7H128.11v14.329h2.139v-5.429h2.987a4.457,4.457,0,1,0,0-8.9Zm.055,6.906h-3.041v-4.912h3.041a2.457,2.457,0,1,1,0,4.912Zm13.217-2.058a4.014,4.014,0,0,0-3.815,2.194l1.9.792a2.027,2.027,0,0,1,1.954-1.051,2.06,2.06,0,0,1,2.249,1.844v.147a4.733,4.733,0,0,0-2.231-.553c-2.046,0-4.129,1.125-4.129,3.226a3.31,3.31,0,0,0,3.557,3.152,3.017,3.017,0,0,0,2.729-1.4h.073v1.107h2.064v-5.494C150.858,129.023,148.96,127.6,146.507,127.6Zm-.258,7.853c-.7,0-1.677-.35-1.677-1.216,0-1.106,1.216-1.53,2.268-1.53a3.811,3.811,0,0,1,1.954.479A2.593,2.593,0,0,1,146.249,135.457Zm12.13-7.54-2.451,6.212h-.074l-2.543-6.212h-2.3l3.816,8.683-2.176,4.829h2.231l5.881-13.512Zm-19.264,9.167h2.139V122.755h-2.139Z" transform="translate(-27.978 -110.894)" fill="#fff"/>
    <g id="Group_9" data-name="Group 9">
      <path id="Path_1112" data-name="Path 1112" d="M14.148,106.925a2.292,2.292,0,0,0-.53,1.609v25.328a2.292,2.292,0,0,0,.53,1.609l.084.083,14.188-14.188v-.335L14.232,106.842Z" transform="translate(-13.618 -106.47)" fill="#40bff2"/>
      <path id="Path_1113" data-name="Path 1113" d="M39.119,129.91l-4.729-4.731v-.335l4.73-4.73.107.061,5.6,3.184c1.6.909,1.6,2.4,0,3.307l-5.6,3.184Z" transform="translate(-19.587 -110.284)" fill="url(#linear-gradient)"/>
      <path id="Path_1114" data-name="Path 1114" d="M33.472,131.824l-4.837-4.837L14.362,141.26a1.863,1.863,0,0,0,2.379.07l16.73-9.506" transform="translate(-13.832 -112.259)" fill="url(#linear-gradient-2)"/>
      <path id="Path_1115" data-name="Path 1115" d="M33.472,116.211,16.741,106.7a1.863,1.863,0,0,0-2.379.07l14.272,14.273Z" transform="translate(-13.832 -106.32)" fill="url(#linear-gradient-3)"/>
    </g>
  </g>
  <g id="Group_11" data-name="Group 11" transform="translate(47.651 7.995)">
    <path id="Path_1116" data-name="Path 1116" d="M69.287,107.491a2.45,2.45,0,0,0-1.625-.626,2.59,2.59,0,0,0,0,5.177,1.955,1.955,0,0,0,2.153-1.821H67.9v-.792h2.955c0,2.369-1.262,3.485-3.19,3.485a3.46,3.46,0,0,1,0-6.92,3.332,3.332,0,0,1,2.28.891Z" transform="translate(-64.257 -105.994)" fill="#fff"/>
    <path id="Path_1117" data-name="Path 1117" d="M79.252,106.1v.851H76.169v2.154h2.692v.852H76.169V112h3.18v.851h-4.09V106.1Z" transform="translate(-67.419 -106.026)" fill="#fff"/>
    <path id="Path_1118" data-name="Path 1118" d="M87.123,106.1v.861H85.078v5.882h-.92v-5.882H82.113V106.1Z" transform="translate(-69.388 -106.026)" fill="#fff"/>
    <path id="Path_1119" data-name="Path 1119" d="M94.9,106.1v6.743h-.91V106.1Z" transform="translate(-72.803 -106.026)" fill="#fff"/>
    <path id="Path_1120" data-name="Path 1120" d="M101.957,106.1v.861H99.912v5.882h-.92v-5.882H96.947V106.1Z" transform="translate(-73.651 -106.026)" fill="#fff"/>
    <path id="Path_1121" data-name="Path 1121" d="M111.615,105.994a3.46,3.46,0,1,1-3.406,3.465A3.419,3.419,0,0,1,111.615,105.994Zm0,6.038a2.58,2.58,0,1,0-2.5-2.573A2.513,2.513,0,0,0,111.615,112.032Z" transform="translate(-76.888 -105.994)" fill="#fff"/>
    <path id="Path_1122" data-name="Path 1122" d="M123.744,112.847l-3.073-5.079v5.079h-.91V106.1h.9l3.043,5.04V106.1h.911v6.743Z" transform="translate(-80.207 -106.026)" fill="#fff"/>
  </g>
</svg>
