<svg xmlns="http://www.w3.org/2000/svg" xmlns:xlink="http://www.w3.org/1999/xlink" width="188.571" height="55.504" viewBox="0 0 188.571 55.504">
  <defs>
    <linearGradient id="linear-gradient" x1="0.807" y1="0.5" x2="-1.573" y2="0.5" gradientUnits="objectBoundingBox">
      <stop offset="0" stop-color="gold"/>
      <stop offset="0.075" stop-color="#fece00"/>
      <stop offset="0.48" stop-color="#fca704"/>
      <stop offset="0.803" stop-color="#fa8e07"/>
      <stop offset="1" stop-color="#fa8608"/>
    </linearGradient>
    <linearGradient id="linear-gradient-2" x1="0.862" y1="0.178" x2="-0.501" y2="1.948" gradientUnits="objectBoundingBox">
      <stop offset="0" stop-color="#e82b36"/>
      <stop offset="1" stop-color="#b4005a"/>
    </linearGradient>
    <linearGradient id="linear-gradient-3" x1="-0.508" y1="-0.956" x2="0.606" y2="0.489" gradientUnits="objectBoundingBox">
      <stop offset="0" stop-color="#2f8e5b"/>
      <stop offset="0.39" stop-color="#4ea157"/>
      <stop offset="0.768" stop-color="#67b054"/>
      <stop offset="1" stop-color="#70b653"/>
    </linearGradient>
  </defs>
  <g id="Group_28645" data-name="Group 28645" transform="translate(0)">
    <g id="Group_8" data-name="Group 8" transform="translate(0 0)">
      <path id="Path_1127" data-name="Path 1127" d="M9.039,0H178.132a9.039,9.039,0,0,1,9.039,9.039V45.065a9.039,9.039,0,0,1-9.039,9.039H9.039A9.039,9.039,0,0,1,0,45.065V9.039A9.039,9.039,0,0,1,9.039,0Z" transform="translate(0.7 0.7)" fill="#0b1c28"/>
      <path id="Path_1110" data-name="Path 1110" d="M178.865,150.279H4.487a7.1,7.1,0,0,1-7.1-7.1v-41.31a7.1,7.1,0,0,1,7.1-7.1H178.865a7.1,7.1,0,0,1,7.1,7.1v41.31A7.1,7.1,0,0,1,178.865,150.279ZM4.487,96.174a5.7,5.7,0,0,0-5.7,5.7v41.31a5.7,5.7,0,0,0,5.7,5.7H178.865a5.7,5.7,0,0,0,5.7-5.7v-41.31a5.7,5.7,0,0,0-5.7-5.7Z" transform="translate(2.61 -94.775)" fill="#96999c"/>
    </g>
    <g id="Group_10" data-name="Group 10" transform="translate(14.062 10.004)">
      <path id="Path_1111" data-name="Path 1111" d="M101.35,128.794a5.928,5.928,0,1,0,5.951,5.928A5.842,5.842,0,0,0,101.35,128.794Zm0,9.521a3.6,3.6,0,1,1,3.346-3.593A3.429,3.429,0,0,1,101.35,138.315Zm-12.98-9.521a5.928,5.928,0,1,0,5.95,5.928A5.843,5.843,0,0,0,88.37,128.794Zm0,9.521a3.6,3.6,0,1,1,3.346-3.593A3.429,3.429,0,0,1,88.37,138.315Zm-15.441-7.7v2.515h6.018a5.252,5.252,0,0,1-1.37,3.166,6.163,6.163,0,0,1-4.648,1.84,6.692,6.692,0,0,1,0-13.382,6.412,6.412,0,0,1,4.535,1.8l1.774-1.774a8.773,8.773,0,0,0-6.309-2.537,9.207,9.207,0,1,0,0,18.412,8.419,8.419,0,0,0,6.422-2.582,8.312,8.312,0,0,0,2.178-5.883,8.181,8.181,0,0,0-.134-1.572Zm63.147,1.953A5.51,5.51,0,0,0,131,128.794a5.634,5.634,0,0,0-5.591,5.928,5.8,5.8,0,0,0,5.883,5.928,5.9,5.9,0,0,0,4.939-2.627l-2.021-1.348a3.384,3.384,0,0,1-2.918,1.639,3.016,3.016,0,0,1-2.874-1.8l7.926-3.278Zm-8.083,1.977a3.252,3.252,0,0,1,3.1-3.458,2.3,2.3,0,0,1,2.2,1.257Zm-6.444,5.748h2.6V122.867h-2.6Zm-4.266-10.171h-.09a4.109,4.109,0,0,0-3.121-1.325,5.933,5.933,0,0,0,0,11.856,4.042,4.042,0,0,0,3.121-1.347h.09v.854c0,2.268-1.212,3.48-3.166,3.48a3.28,3.28,0,0,1-2.986-2.111l-2.268.944a5.65,5.65,0,0,0,5.254,3.5c3.054,0,5.636-1.8,5.636-6.175V129.154h-2.47Zm-2.986,8.2a3.606,3.606,0,0,1,0-7.185,3.621,3.621,0,0,1,0,7.185Zm33.98-15.448h-6.232v17.423h2.6v-6.6h3.632a5.419,5.419,0,1,0,0-10.822Zm.067,8.4h-3.7v-5.973h3.7a2.987,2.987,0,1,1,0,5.973Zm16.072-2.5a4.881,4.881,0,0,0-4.639,2.668l2.308.964a2.465,2.465,0,0,1,2.376-1.278,2.5,2.5,0,0,1,2.735,2.242v.179a5.755,5.755,0,0,0-2.712-.672c-2.488,0-5.021,1.367-5.021,3.923,0,2.331,2.039,3.833,4.326,3.833a3.669,3.669,0,0,0,3.318-1.7h.089v1.346h2.51v-6.68C169.706,130.488,167.4,128.762,164.415,128.762Zm-.314,9.549c-.852,0-2.04-.425-2.04-1.479,0-1.345,1.479-1.86,2.757-1.86a4.634,4.634,0,0,1,2.376.582A3.153,3.153,0,0,1,164.1,138.311Zm14.749-9.168L175.87,136.7h-.09l-3.093-7.554h-2.8l4.64,10.558-2.645,5.873h2.712l7.151-16.43Zm-23.424,11.147h2.6V122.867h-2.6Z" transform="translate(-20.287 -108.444)" fill="#fff"/>
      <g id="Group_9" data-name="Group 9">
        <path id="Path_1112" data-name="Path 1112" d="M14.263,106.943a2.787,2.787,0,0,0-.645,1.957v30.8a2.787,2.787,0,0,0,.645,1.957l.1.1L31.618,124.5v-.407L14.365,106.842Z" transform="translate(-13.618 -106.39)" fill="#40bff2"/>
        <path id="Path_1113" data-name="Path 1113" d="M40.14,132.026l-5.75-5.753v-.407l5.752-5.752.13.074,6.814,3.872c1.946,1.106,1.946,2.915,0,4.021l-6.814,3.872Z" transform="translate(-16.39 -108.161)" fill="url(#linear-gradient)"/>
        <path id="Path_1114" data-name="Path 1114" d="M37.6,132.869l-5.882-5.882L14.362,144.343c.641.679,1.7.763,2.893.085L37.6,132.869" transform="translate(-13.717 -109.078)" fill="url(#linear-gradient-2)"/>
        <path id="Path_1115" data-name="Path 1115" d="M37.6,118.347,17.255,106.788c-1.192-.678-2.252-.594-2.893.085l17.355,17.356Z" transform="translate(-13.717 -106.32)" fill="url(#linear-gradient-3)"/>
      </g>
    </g>
    <g id="Group_11" data-name="Group 11" transform="translate(57.943 9.722)">
      <path id="Path_1116" data-name="Path 1116" d="M70.374,107.815a2.98,2.98,0,0,0-1.976-.762,3.15,3.15,0,0,0,0,6.3,2.378,2.378,0,0,0,2.618-2.214H68.684v-.964h3.593c0,2.88-1.535,4.237-3.879,4.237a4.208,4.208,0,0,1,0-8.414,4.052,4.052,0,0,1,2.773,1.083Z" transform="translate(-64.257 -105.994)" fill="#fff"/>
      <path id="Path_1117" data-name="Path 1117" d="M80.114,106.1v1.035H76.366v2.619h3.273v1.036H76.366v2.476h3.867V114.3H75.259v-8.2Z" transform="translate(-65.725 -106.009)" fill="#fff"/>
      <path id="Path_1118" data-name="Path 1118" d="M88.206,106.1v1.047H85.719V114.3H84.6v-7.152H82.113V106.1Z" transform="translate(-66.64 -106.009)" fill="#fff"/>
      <path id="Path_1119" data-name="Path 1119" d="M95.1,106.1v8.2H93.994v-8.2Z" transform="translate(-68.226 -106.009)" fill="#fff"/>
      <path id="Path_1120" data-name="Path 1120" d="M103.04,106.1v1.047h-2.487V114.3H99.434v-7.152H96.947V106.1Z" transform="translate(-68.62 -106.009)" fill="#fff"/>
      <path id="Path_1121" data-name="Path 1121" d="M112.351,105.994a4.208,4.208,0,1,1-4.142,4.213A4.157,4.157,0,0,1,112.351,105.994Zm0,7.342a3.137,3.137,0,1,0-3.035-3.129A3.055,3.055,0,0,0,112.351,113.336Z" transform="translate(-70.123 -105.994)" fill="#fff"/>
      <path id="Path_1122" data-name="Path 1122" d="M124.6,114.3l-3.736-6.176V114.3h-1.107v-8.2h1.1l3.7,6.128V106.1h1.107v8.2Z" transform="translate(-71.665 -106.009)" fill="#fff"/>
    </g>
  </g>
</svg>
